<?xml version="1.0" standalone="no"?>
<!DOCTYPE svg PUBLIC "-//W3C//DTD SVG 20010904//EN"
 "http://www.w3.org/TR/2001/REC-SVG-20010904/DTD/svg10.dtd">
<svg version="1.0" xmlns="http://www.w3.org/2000/svg"
 width="2000.000000pt" height="3333.000000pt" viewBox="0 0 2000.000000 3333.000000"
 preserveAspectRatio="xMidYMid meet">

<g transform="translate(0.000000,3333.000000) scale(0.100000,-0.100000)"
fill="#000000" stroke="none">
<path d="M10273 32339 c-99 -74 -193 -233 -193 -326 l0 -52 -57 21 c-90 32
-237 35 -411 9 -155 -24 -248 -48 -442 -116 -183 -63 -227 -82 -310 -130 -41
-24 -96 -48 -121 -54 -173 -39 -587 -217 -812 -351 -160 -94 -527 -398 -527
-436 0 -22 25 -21 80 3 74 33 92 38 50 14 -19 -11 -86 -39 -149 -62 l-113 -42
6 -36 c3 -20 6 -69 6 -108 0 -70 2 -75 37 -114 l36 -40 -75 -77 c-172 -176
-320 -373 -416 -552 -23 -41 -66 -137 -96 -214 -31 -76 -72 -166 -91 -200 -33
-60 -95 -221 -95 -248 0 -26 21 -37 49 -27 l26 10 -21 -23 c-11 -13 -51 -59
-89 -103 -38 -44 -116 -128 -172 -186 -57 -59 -103 -114 -103 -124 0 -12 -5
-15 -20 -10 -41 13 -50 -10 -50 -124 0 -93 3 -113 26 -161 14 -30 37 -68 52
-83 19 -20 24 -32 17 -41 -70 -94 -133 -270 -140 -391 -3 -58 -5 -62 -64 -124
-61 -64 -62 -65 -68 -136 -8 -95 2 -155 34 -201 l25 -38 -18 -60 c-26 -85 -28
-431 -3 -449 14 -11 17 -65 21 -459 l6 -448 -22 0 c-31 0 -85 -43 -119 -92
-36 -54 -73 -177 -91 -303 -42 -280 -51 -418 -51 -750 0 -309 1 -336 22 -418
13 -48 29 -100 37 -115 20 -38 83 -94 126 -112 19 -7 37 -15 38 -16 2 -1 -17
-71 -43 -156 -26 -84 -60 -198 -77 -253 -16 -55 -51 -154 -78 -220 -105 -264
-107 -339 -16 -610 19 -55 53 -161 75 -235 29 -95 72 -196 143 -340 141 -287
203 -379 431 -632 56 -63 142 -161 191 -217 100 -115 239 -243 359 -330 45
-32 168 -104 274 -160 106 -55 233 -123 283 -150 358 -195 693 -301 1258 -397
457 -78 630 -103 835 -121 l197 -17 0 -39 c0 -42 -44 -143 -83 -191 -22 -27
-25 -28 -132 -31 -97 -2 -119 -6 -180 -32 -107 -46 -189 -89 -222 -117 -112
-94 -785 -552 -1006 -685 -129 -78 -209 -157 -254 -250 -25 -52 -55 -94 -94
-132 -60 -59 -179 -149 -197 -149 -6 0 -14 10 -17 23 -24 77 -322 541 -433
672 -62 73 -140 202 -212 345 -158 318 -233 433 -371 570 l-117 116 -11 71
c-11 63 -18 78 -67 137 -30 36 -90 101 -134 143 -44 43 -92 96 -107 118 -15
22 -35 47 -44 55 -10 8 -27 39 -39 68 -100 259 -279 501 -428 580 -69 37 -163
62 -229 62 l-50 0 -30 63 c-34 68 -36 76 -34 124 1 25 9 38 38 57 46 32 93
100 93 137 0 31 -31 59 -65 59 -11 0 -53 10 -94 22 -80 24 -135 66 -147 114
-7 29 19 94 48 121 30 27 47 65 63 143 19 90 19 150 0 177 -15 21 -145 61
-163 49 -5 -3 -12 -23 -15 -44 -4 -20 -13 -46 -21 -57 -15 -19 -16 -19 -43 15
-104 131 -152 162 -266 168 -76 5 -80 6 -96 34 -36 67 -50 78 -97 78 -49 0
-215 -34 -246 -51 -11 -6 -32 -38 -47 -72 -37 -81 -62 -102 -141 -116 -148
-28 -455 -113 -590 -164 -177 -67 -526 -184 -675 -227 -60 -18 -130 -40 -155
-50 -57 -23 -301 -130 -360 -158 -25 -12 -115 -47 -200 -78 -85 -31 -225 -87
-311 -125 -86 -38 -160 -69 -164 -69 -4 0 -20 14 -35 30 -19 21 -38 30 -59 30
-52 0 -134 -37 -176 -80 l-40 -41 1 -117 c1 -111 3 -123 42 -230 29 -81 64
-148 118 -233 83 -128 146 -200 227 -254 51 -34 54 -35 155 -35 97 0 109 2
223 45 65 24 159 56 207 70 128 37 429 105 467 105 19 0 35 4 37 9 2 5 85 29
185 54 100 25 231 65 290 88 59 22 114 41 122 42 8 0 23 9 33 19 10 10 23 16
29 12 6 -3 16 1 22 10 12 16 134 66 162 66 14 0 18 -11 45 -130 6 -30 18 -73
25 -95 7 -22 16 -78 20 -125 4 -57 14 -99 30 -130 27 -53 96 -120 124 -120 22
0 31 -19 31 -65 0 -42 16 -86 78 -215 28 -58 58 -137 67 -175 23 -98 77 -192
205 -358 28 -35 119 -94 190 -123 30 -12 89 -25 131 -28 89 -8 154 11 239 70
l50 34 0 -25 c0 -20 8 -29 33 -40 44 -19 274 -265 333 -356 26 -41 75 -108
110 -149 63 -76 190 -262 224 -329 11 -20 30 -79 44 -131 56 -224 140 -356
347 -552 142 -133 202 -204 327 -385 38 -54 111 -159 163 -233 52 -74 116
-166 140 -205 25 -38 70 -99 100 -135 30 -36 77 -94 104 -130 27 -36 84 -104
127 -153 43 -48 90 -106 104 -129 51 -81 228 -300 283 -350 60 -55 108 -88
186 -126 27 -14 62 -33 77 -44 49 -34 156 -61 216 -53 77 10 96 19 274 145
l21 14 -7 -266 c-9 -305 4 -633 35 -893 l21 -170 -31 -440 c-17 -242 -33 -478
-36 -525 -14 -197 -36 -416 -60 -570 -32 -220 -55 -426 -65 -585 -10 -172 -37
-512 -56 -707 -34 -353 -30 -621 13 -798 22 -91 19 -642 -4 -775 -8 -49 -16
-128 -16 -175 -1 -78 1 -89 31 -141 28 -49 32 -64 32 -130 0 -41 -5 -93 -10
-117 -12 -50 11 -628 34 -852 8 -80 18 -194 21 -255 6 -106 11 -157 56 -545
16 -138 22 -264 26 -595 l5 -420 45 -100 c81 -179 84 -193 93 -385 5 -100 15
-203 25 -240 35 -141 45 -1154 18 -1951 l-17 -526 22 -269 c29 -345 37 -458
58 -795 l18 -276 -27 -124 c-20 -94 -40 -152 -82 -239 -30 -63 -55 -126 -55
-138 0 -13 12 -34 26 -49 14 -14 23 -27 21 -30 -3 -2 -63 -24 -134 -48 -70
-23 -164 -57 -208 -75 -99 -40 -351 -123 -425 -140 -30 -7 -93 -28 -140 -46
-56 -21 -113 -34 -165 -39 -58 -5 -101 -16 -155 -40 -41 -18 -97 -43 -125 -55
-74 -32 -124 -97 -165 -217 -61 -180 -51 -385 28 -543 34 -68 75 -91 170 -95
59 -3 156 -12 582 -55 239 -24 506 -31 1050 -28 570 3 575 3 616 25 33 18 65
23 160 28 272 15 623 130 718 236 58 64 61 86 58 459 -1 184 -6 391 -12 459
-8 106 -7 127 7 147 20 31 14 133 -17 289 -21 104 -22 133 -21 505 1 217 6
447 11 510 5 63 14 180 21 260 6 84 9 279 6 465 -4 306 -5 328 -36 500 -18 99
-36 205 -41 235 -5 30 -19 168 -30 305 -11 138 -25 297 -31 355 -8 77 -7 206
3 480 17 500 16 642 -11 825 -30 208 -52 536 -60 885 -6 289 -7 296 -31 340
-23 42 -25 57 -32 250 -3 113 -13 250 -22 305 -37 243 -40 313 -25 517 15 210
15 493 -1 712 -8 111 -8 141 2 148 7 4 57 8 112 8 l99 0 -6 -62 c-10 -100 -8
-852 3 -1088 9 -197 19 -318 50 -578 13 -107 9 -246 -10 -416 l-14 -119 28
-76 c65 -177 74 -211 85 -316 20 -211 40 -323 67 -387 31 -74 54 -233 84 -583
6 -66 19 -205 30 -310 10 -104 28 -284 40 -400 11 -115 24 -250 30 -300 16
-149 39 -457 50 -685 7 -121 29 -351 50 -525 70 -553 74 -626 63 -1213 l-10
-517 -37 -118 c-21 -65 -46 -138 -57 -163 -13 -28 -22 -73 -23 -117 -3 -56
-13 -97 -46 -182 -41 -107 -60 -194 -95 -420 -9 -60 -24 -148 -32 -195 -20
-115 -22 -131 -29 -315 -6 -153 -5 -161 15 -187 28 -35 81 -46 301 -65 237
-20 1673 -30 1876 -13 77 6 231 15 344 20 216 9 328 29 397 71 40 25 43 35 43
127 0 129 -34 229 -122 369 -53 84 -111 133 -212 178 l-84 38 -41 113 c-61
168 -98 320 -83 345 7 10 12 34 12 52 0 45 -41 198 -74 274 -14 34 -26 76 -26
92 0 69 -32 191 -74 281 -44 94 -45 97 -50 225 -7 170 -33 354 -96 690 -10 55
-22 143 -25 195 -3 52 -13 160 -22 240 -13 116 -14 185 -7 345 13 307 11 956
-4 1180 -27 414 -30 543 -19 940 6 220 10 531 9 690 -3 304 2 365 44 542 34
146 34 298 -2 414 -67 222 -74 271 -74 566 0 294 8 378 84 848 19 116 42 273
51 350 24 200 22 195 56 195 49 0 52 19 46 274 -3 127 -12 310 -19 406 -7 102
-13 326 -12 535 0 328 3 379 27 577 15 120 27 264 27 321 0 57 6 152 14 213
39 297 44 646 16 1104 -11 164 -11 299 -1 675 7 259 13 513 14 565 l2 95 42
-200 c73 -348 105 -531 128 -730 23 -200 43 -351 75 -565 112 -753 122 -837
117 -998 -2 -75 -10 -175 -17 -222 -14 -98 -7 -287 14 -427 10 -65 24 -110 48
-155 28 -54 42 -69 99 -103 l67 -40 4 -165 c4 -135 12 -201 42 -360 48 -252
67 -290 142 -290 90 0 155 181 180 500 8 102 19 215 25 253 10 64 12 67 39 67
66 0 112 -120 135 -345 7 -69 23 -399 34 -695 11 -287 33 -350 125 -350 30 0
55 8 80 25 20 14 41 25 45 25 19 0 104 105 127 155 13 30 28 55 33 55 30 0
213 348 267 510 14 41 34 93 44 115 53 114 82 323 78 553 -3 159 -1 182 14
191 26 16 39 101 45 297 l6 181 -34 62 c-23 44 -48 75 -84 101 -83 61 -80 53
-81 239 -1 149 -4 180 -33 303 -25 109 -34 183 -46 355 -17 255 -87 765 -125
913 -5 19 -12 78 -15 130 -4 52 -13 158 -21 235 -31 306 -44 473 -59 773 -18
357 -47 552 -84 552 -4 0 -17 17 -29 39 -17 30 -22 55 -22 113 0 93 -22 179
-62 243 -77 123 -79 130 -89 248 -6 61 -17 136 -25 166 -20 70 -148 396 -209
531 -112 249 -190 494 -261 825 -13 61 -35 144 -48 185 -14 41 -70 215 -125
385 -55 171 -105 328 -112 350 -17 59 -65 163 -100 217 -34 53 -100 101 -269
195 -107 59 -296 194 -473 336 l-97 78 6 42 c14 104 46 252 65 299 38 96 43
100 175 127 132 26 262 62 554 153 234 72 329 109 520 200 145 70 472 208 605
255 104 38 252 115 317 165 31 24 122 102 203 174 80 71 170 145 199 164 29
19 95 82 147 140 52 57 126 136 165 175 74 73 108 130 174 287 l32 78 103 55
c69 37 136 64 197 80 205 52 271 85 403 203 146 129 249 268 388 518 108 196
167 339 227 549 13 44 43 147 67 229 63 215 86 356 81 488 -4 95 -8 113 -37
172 -48 97 -76 111 -216 109 -61 -1 -134 -8 -165 -16 -30 -9 -56 -14 -57 -13
-2 1 6 47 16 102 26 134 41 274 41 388 0 52 6 123 14 158 8 35 24 140 35 233
12 94 35 283 52 420 31 247 31 253 24 555 -4 167 -13 343 -20 390 -11 79 -11
88 7 123 27 54 34 128 15 158 -12 20 -16 80 -21 324 -3 169 -12 353 -20 420
-8 66 -15 168 -16 226 l0 106 44 66 c56 84 84 157 95 255 5 42 12 84 15 93 11
25 -12 35 -109 47 -50 7 -114 19 -142 27 l-50 15 -5 102 c-5 92 -10 115 -51
218 -58 147 -164 347 -230 436 -87 116 -532 549 -727 706 -50 41 -237 173
-585 414 -71 50 -197 139 -279 198 -83 59 -171 119 -198 132 -127 65 -222 129
-289 197 -95 96 -102 111 -97 213 2 64 8 89 24 111 30 41 157 103 226 110 72
7 90 25 53 49 -95 62 -291 55 -425 -17 -62 -33 -190 -156 -190 -182 0 -36 -21
-23 -61 41 -69 107 -236 266 -359 342 -291 180 -532 270 -840 316 -179 27
-546 25 -708 -3 -105 -19 -130 -21 -175 -11 -33 8 -171 13 -382 14 -311 1
-333 2 -389 23 -70 25 -156 72 -207 112 -20 16 -43 29 -50 28 -8 0 -37 -18
-66 -40z m2721 -1530 c163 -46 324 -114 439 -184 56 -34 138 -83 182 -110 146
-89 179 -112 266 -188 157 -139 235 -249 381 -542 155 -311 176 -383 185 -665
l6 -175 -38 -38 c-36 -36 -37 -38 -21 -62 9 -13 16 -35 16 -49 0 -58 92 -124
186 -133 30 -3 54 -11 54 -17 -1 -6 -7 -40 -15 -76 -21 -93 -38 -375 -33 -515
5 -116 19 -174 42 -176 6 0 38 -37 70 -81 121 -165 320 -283 595 -353 51 -13
95 -26 97 -28 3 -2 -11 -62 -31 -133 -54 -200 -81 -329 -122 -589 -37 -239
-37 -241 -37 -540 0 -167 5 -329 11 -365 l11 -65 -39 -61 c-43 -67 -48 -96
-20 -116 10 -7 26 -28 35 -47 43 -81 158 -171 222 -171 20 0 22 -7 27 -82 8
-137 101 -403 145 -414 12 -4 22 -23 31 -62 7 -31 21 -76 31 -99 l19 -43 -62
0 c-94 0 -308 -18 -547 -45 -118 -13 -314 -33 -435 -45 -277 -26 -427 -46
-890 -120 -105 -17 -141 -18 -285 -10 -123 7 -180 15 -225 30 -33 12 -75 26
-94 31 -31 10 -33 12 -27 47 3 20 10 96 16 167 5 72 15 159 22 195 6 36 13
115 15 176 4 99 2 117 -17 163 -13 28 -26 51 -30 51 -5 0 -18 15 -29 34 -31
49 -43 55 -556 238 -182 65 -423 135 -602 173 -92 20 -202 45 -243 55 -180 46
-257 52 -655 54 -402 1 -567 -9 -746 -45 -55 -11 -125 -29 -155 -40 -71 -27
-171 -94 -188 -128 -7 -14 -16 -71 -19 -126 -3 -55 -11 -149 -16 -210 -8 -82
-38 -563 -41 -650 0 -5 -6 -2 -14 7 -32 43 -478 267 -601 303 -91 26 -345 70
-464 80 -35 3 -67 7 -70 10 -2 3 1 63 7 133 19 206 25 297 18 291 -3 -3 -13
-73 -21 -155 -9 -82 -19 -174 -23 -204 l-7 -55 -225 -7 c-262 -7 -353 -20
-432 -60 -36 -17 -38 -17 -38 -1 0 10 7 45 16 78 10 38 17 127 21 240 8 259
-15 334 -137 454 -67 66 -235 168 -335 204 -39 14 -125 37 -190 52 -111 26
-144 28 -445 36 -179 5 -388 13 -465 18 -77 6 -189 10 -249 11 l-109 0 6 528
c8 758 24 854 222 1327 30 72 64 155 75 185 12 30 39 87 61 126 21 39 39 80
39 90 0 28 95 181 155 249 29 33 66 83 84 112 25 41 59 71 164 146 181 130
335 210 554 287 l51 18 -10 -29 c-5 -16 -8 -36 -5 -43 8 -19 56 -25 87 -10 38
18 333 88 520 123 276 52 790 93 790 63 0 -5 -14 -21 -31 -38 -55 -52 -82
-128 -63 -178 9 -24 32 -19 77 18 60 48 127 90 133 83 3 -3 -1 -16 -10 -29
-34 -52 -28 -196 11 -276 22 -46 45 -51 74 -18 13 15 41 31 63 37 195 49 359
97 451 131 61 22 151 55 200 73 308 113 821 328 995 416 282 144 557 340 849
605 64 58 123 104 139 107 15 3 47 19 72 35 25 16 146 87 270 157 124 70 271
159 326 196 113 77 256 198 298 253 24 32 32 36 73 36 25 0 96 -14 157 -31z
m-5954 -744 c-7 -8 -9 -15 -4 -15 5 0 0 -7 -11 -16 -11 -8 -18 -17 -16 -20 2
-3 -25 -50 -59 -105 -34 -55 -84 -146 -110 -202 -55 -113 -63 -123 -24 -27 55
137 155 316 212 383 18 21 30 23 12 2z m-259 -492 c-12 -20 -14 -14 -5 12 4 9
9 14 11 11 3 -2 0 -13 -6 -23z m-31 -102 c-11 -40 -18 -76 -15 -81 7 -11 -35
-78 -65 -105 l-23 -20 6 40 c5 35 106 249 114 242 1 -2 -6 -36 -17 -76z m1240
-4611 c0 -15 -7 -20 -27 -20 l-28 0 25 20 c31 24 30 24 30 0z m682 -19 c11
-11 10 -12 -2 -6 -12 7 -13 6 -4 -6 7 -8 10 -32 9 -54 -19 -223 -36 -351 -75
-545 -16 -80 -41 -178 -55 -219 -14 -41 -25 -84 -25 -95 1 -39 26 9 63 122 48
142 78 325 117 707 6 60 13 112 16 114 2 3 26 -2 52 -11 26 -9 72 -19 103 -22
67 -7 264 -53 406 -96 115 -34 320 -120 433 -182 41 -23 95 -52 119 -65 l44
-23 -2 -152 c-2 -141 0 -162 28 -270 32 -125 44 -151 100 -211 46 -50 204
-143 265 -157 46 -10 146 -22 194 -23 12 -1 22 -4 22 -7 0 -3 16 -5 35 -4 19
1 37 -2 40 -6 3 -5 14 -6 25 -3 19 5 134 -7 725 -77 287 -34 623 -72 860 -96
113 -12 378 -5 440 11 86 23 162 72 260 170 89 88 155 190 155 239 0 10 10 69
21 131 l21 112 132 13 c72 7 205 14 296 15 160 2 260 10 535 40 72 8 168 16
215 20 161 10 517 41 760 65 58 6 228 37 378 69 150 32 271 55 269 52 -22 -40
-59 -131 -72 -177 -22 -83 -30 -219 -16 -272 l12 -43 27 23 c48 43 123 123
155 166 17 23 36 42 43 42 7 0 15 9 19 20 3 11 50 86 104 167 114 171 189 243
332 318 109 56 181 75 290 75 73 0 90 -3 114 -22 108 -85 101 -323 -24 -743
-32 -110 -66 -228 -75 -263 -53 -210 -310 -686 -459 -849 -58 -63 -214 -196
-256 -218 -49 -25 -187 -73 -233 -80 -61 -10 -190 -61 -216 -85 -12 -12 -22
-16 -22 -9 0 34 126 265 193 355 41 55 76 107 77 115 8 51 -18 52 -59 2 -143
-175 -187 -252 -342 -598 -90 -201 -101 -221 -152 -265 -26 -23 -68 -69 -93
-102 -45 -58 -46 -59 -67 -41 -20 18 -20 18 -4 -7 16 -25 16 -27 -13 -59 -17
-17 -35 -41 -40 -52 -6 -10 -18 -19 -28 -19 -26 0 -139 -79 -228 -161 -95 -87
-236 -206 -281 -237 -53 -37 -181 -97 -300 -141 -61 -22 -140 -54 -175 -71
-35 -16 -126 -57 -203 -89 -77 -32 -209 -91 -294 -131 -255 -120 -736 -269
-1096 -340 -772 -151 -1442 -205 -2010 -162 -93 7 -289 22 -435 33 -298 23
-476 46 -907 119 -346 59 -476 87 -664 140 -283 82 -436 144 -704 287 -455
244 -506 276 -687 435 -65 57 -152 144 -194 193 -43 50 -118 135 -168 190
-230 252 -281 324 -414 590 -66 132 -115 244 -142 330 -23 72 -61 191 -85 265
-92 287 -90 310 49 665 19 50 48 140 64 200 16 61 39 144 51 185 12 41 26 94
31 118 21 83 48 41 51 -77 1 -45 6 -84 12 -88 6 -3 7 -1 3 5 -3 6 -2 13 4 17
6 4 7 12 3 18 -5 8 -2 8 9 0 8 -7 18 -10 21 -6 4 3 7 1 7 -6 0 -8 6 -7 16 4
12 12 19 13 24 5 5 -8 9 -7 14 5 3 10 11 13 18 9 7 -4 9 -3 5 1 -10 11 -39 16
-32 6 2 -4 -1 -8 -8 -9 -7 0 -23 -3 -35 -6 -20 -4 -22 -3 -12 9 7 8 16 12 22
9 5 -3 15 0 23 6 8 7 15 9 15 6 0 -4 6 -4 13 1 17 11 30 11 46 -1 11 -8 13 -8
7 2 -4 7 -2 12 7 12 8 0 22 10 31 23 9 12 14 15 11 7 -4 -8 2 -5 12 8 17 21
22 22 69 13 51 -10 204 -24 394 -36 52 -4 181 -15 285 -25 198 -19 415 -19
507 1 75 17 192 92 281 182 129 130 165 220 169 421 l2 104 90 16 c175 31 222
35 373 32 113 -1 156 -5 165 -15z m1190 -248 c19 -17 25 -63 9 -63 -28 0 -41
14 -41 46 0 38 5 41 32 17z m3303 -149 c75 -40 141 -56 263 -61 125 -6 149
-15 124 -46 -6 -6 -13 -34 -17 -62 -13 -100 2 -90 -152 -104 -76 -7 -178 -19
-228 -26 -49 -8 -90 -13 -91 -12 -1 1 1 25 6 52 5 28 16 101 25 163 11 65 22
112 29 112 6 0 25 -7 41 -16z m-8267 -2740 c2 -17 -18 -25 -195 -68 -297 -72
-481 -124 -504 -140 -51 -35 -75 -106 -58 -171 14 -50 84 -123 128 -131 17 -4
31 -9 31 -13 0 -3 -21 -14 -48 -25 -89 -35 -173 -96 -215 -156 -15 -22 -17
-23 -18 -5 -1 11 -1 24 0 29 1 5 -7 36 -18 70 -11 33 -23 97 -27 142 -6 74 -4
84 20 132 53 105 219 182 616 286 96 25 195 52 220 60 54 17 64 16 68 -10z
m675 -23 c96 -25 120 -38 201 -106 103 -88 186 -206 288 -413 102 -206 99
-190 47 -327 -42 -108 -72 -147 -155 -204 -56 -38 -282 -161 -296 -161 -2 0
-4 37 -4 83 -4 241 -130 722 -195 742 -22 7 -22 8 -4 21 17 13 15 14 -21 16
-67 3 -114 -1 -259 -26 -77 -13 -194 -32 -260 -41 -66 -9 -176 -25 -245 -37
-246 -41 -409 -16 -467 71 -44 65 -22 139 49 164 149 52 729 192 878 211 234
30 344 32 443 7z m-1293 -85 c0 -3 -24 -12 -52 -22 -51 -17 -58 -19 -86 -22
-7 -1 -11 -6 -7 -12 3 -5 -9 -17 -27 -26 -82 -41 -157 -127 -159 -181 0 -13
-3 -11 -10 7 -6 15 -7 64 -3 122 l7 98 31 4 c17 3 69 12 116 19 84 14 190 21
190 13z m995 -332 c-67 -20 -157 -56 -152 -61 3 -2 52 10 111 26 58 17 132 33
164 37 l59 6 21 -49 c21 -50 72 -232 72 -259 0 -8 -10 -14 -22 -14 -13 -1 -36
-7 -53 -15 -29 -15 -28 -15 26 -9 l56 5 8 -123 c4 -68 15 -175 26 -238 14 -90
16 -118 6 -127 -23 -23 -136 -73 -151 -67 -9 3 -16 1 -16 -6 0 -6 -4 -8 -10
-5 -5 3 -10 1 -10 -5 0 -6 -4 -8 -10 -5 -5 3 -10 2 -10 -3 0 -6 -12 -13 -27
-17 -35 -8 -85 -44 -78 -56 4 -5 -2 -6 -11 -2 -13 5 -15 3 -9 -7 5 -8 4 -11
-2 -7 -6 4 -32 -4 -59 -17 -27 -13 -60 -27 -74 -31 -14 -4 -36 -15 -50 -25
-14 -9 -72 -41 -130 -70 -58 -29 -116 -61 -129 -71 -13 -11 -31 -19 -40 -19
-9 0 -22 -4 -30 -9 -11 -7 -7 -12 15 -24 l29 -15 -30 -12 c-19 -8 -61 -10
-118 -7 -82 5 -95 9 -164 49 -77 44 -92 58 -179 175 -74 99 -110 168 -128 250
-8 40 -25 91 -36 114 -12 23 -18 45 -13 49 4 5 48 38 97 75 116 86 219 147
430 252 189 94 259 133 253 140 -6 5 -186 -76 -328 -148 -154 -77 -261 -144
-369 -230 l-101 -80 -35 76 c-25 53 -38 100 -44 156 -12 107 -1 134 82 195 80
59 94 66 208 105 76 25 103 30 145 25 29 -3 91 1 145 10 52 8 149 21 215 29
141 17 375 52 425 64 59 15 78 11 25 -5z m6884 -836 c-10 -35 -43 -236 -54
-330 l-6 -58 -39 0 c-55 0 -222 -69 -400 -165 -85 -46 -218 -114 -295 -151
-77 -37 -189 -94 -250 -127 -141 -76 -282 -129 -464 -175 l-146 -37 -240 0
c-261 0 -434 16 -448 40 -4 8 -18 15 -30 15 -58 0 -183 140 -229 255 -25 63
-35 179 -19 227 10 29 24 42 83 74 85 46 179 130 215 191 l25 44 22 -24 c12
-13 37 -29 56 -36 115 -40 467 -16 1335 95 158 20 207 22 227 12 10 -5 19 -4
23 3 4 6 13 8 21 5 8 -3 14 0 14 6 0 6 3 9 6 5 4 -3 29 3 58 14 28 10 123 37
211 60 88 22 185 49 215 59 30 11 66 21 80 23 14 2 28 5 32 6 4 0 2 -14 -3
-31z m-2684 -435 c4 -10 11 -75 14 -144 7 -116 10 -132 43 -200 19 -41 54 -99
77 -129 42 -55 48 -70 32 -70 -16 0 -96 -131 -123 -200 -33 -83 -101 -321
-122 -425 -22 -108 -86 -322 -126 -420 -135 -332 -176 -442 -225 -614 -48
-163 -46 -163 -89 -21 -35 118 -43 159 -61 306 -24 209 -20 398 16 656 45 325
91 497 214 797 71 171 168 337 253 433 46 51 84 63 97 31z m2582 -101 c-6
-101 -20 -147 -135 -452 -57 -153 -201 -455 -252 -530 -24 -36 -84 -119 -135
-185 -50 -66 -102 -138 -115 -160 -33 -56 -160 -229 -253 -343 -43 -54 -112
-142 -154 -197 -223 -292 -400 -474 -575 -594 -56 -38 -58 -33 -22 70 14 41
38 137 54 214 16 77 51 228 78 335 27 107 55 233 61 280 38 291 46 397 46 610
0 253 -10 311 -66 374 l-30 35 38 10 c21 5 76 19 123 31 149 38 255 84 710
311 422 210 587 288 619 289 11 0 13 -18 8 -98z m-3062 -581 c-69 -168 -165
-722 -165 -946 0 -211 43 -476 111 -685 34 -107 60 -144 83 -120 8 8 30 72 50
142 33 117 56 183 190 548 46 124 95 234 96 215 1 -5 2 -68 4 -140 2 -123 0
-138 -36 -275 -21 -80 -50 -197 -64 -260 -23 -108 -87 -360 -120 -477 -10 -32
-21 -53 -30 -53 -26 0 -54 -39 -54 -75 0 -37 28 -75 56 -75 23 0 13 -45 -51
-219 -29 -81 -78 -222 -109 -316 -30 -93 -72 -213 -91 -265 -20 -52 -74 -239
-120 -415 -97 -367 -95 -359 -210 -725 -105 -334 -135 -444 -135 -490 0 -53
46 -261 84 -385 19 -60 51 -177 71 -259 20 -82 51 -201 69 -265 18 -64 61
-219 95 -346 84 -313 111 -407 123 -429 5 -10 24 -60 43 -110 50 -140 64 -158
95 -121 22 26 164 342 235 520 69 175 114 266 195 395 202 318 273 522 285
810 7 180 28 449 50 635 8 72 24 228 35 348 22 228 70 528 90 552 7 8 20 90
31 182 11 92 32 256 48 363 16 107 32 224 36 260 4 36 13 115 21 177 7 62 11
119 8 127 -4 10 5 18 33 25 21 6 43 11 50 11 7 0 28 8 48 17 25 12 35 23 35
39 0 25 -34 39 -123 51 l-48 6 5 46 c3 25 15 123 27 216 21 179 35 246 51 256
5 4 12 24 15 45 3 22 12 55 20 74 23 56 44 139 48 203 3 32 7 63 10 67 3 5 1
11 -5 15 -22 13 14 48 83 80 176 81 297 125 297 106 0 -32 -45 -262 -78 -401
-22 -91 -52 -224 -66 -295 -14 -72 -35 -157 -46 -189 -24 -70 -27 -151 -6
-159 35 -14 220 113 364 248 78 73 157 164 376 433 101 123 139 163 103 109
-20 -31 -151 -323 -167 -372 -7 -22 -21 -56 -31 -75 -11 -19 -33 -69 -48 -110
l-29 -75 -128 -6 c-155 -7 -151 -4 -190 -162 l-29 -112 0 -350 c0 -326 2 -357
22 -450 39 -172 116 -293 220 -343 39 -19 38 -16 58 -167 28 -209 44 -405 34
-405 -11 0 -13 -79 -3 -120 3 -14 7 -59 9 -100 2 -41 5 -82 8 -90 13 -49 39
-137 44 -150 4 -8 5 -18 5 -22 -1 -5 3 -8 10 -8 6 0 9 -3 5 -6 -3 -3 1 -23 8
-45 14 -40 15 -42 15 -58 0 -5 7 -16 15 -25 8 -8 16 -25 17 -39 1 -13 8 -24
15 -24 10 0 10 4 3 11 -5 5 -10 14 -10 19 0 5 7 1 16 -7 10 -11 14 -28 11 -51
-3 -19 -1 -33 3 -30 5 3 11 -1 14 -7 2 -7 3 3 0 24 -3 20 -1 39 5 42 5 4 7 -3
3 -16 -4 -16 -2 -19 9 -13 11 7 12 6 2 -7 -7 -8 -10 -17 -7 -20 3 -4 -11 -31
-32 -62 -40 -61 -59 -77 -25 -22 20 32 20 34 4 47 -16 13 -17 12 -4 -3 11 -14
11 -18 1 -18 -8 0 -10 -3 -7 -7 4 -3 2 -12 -3 -19 -6 -6 -13 -21 -15 -32 -3
-16 0 -19 12 -15 12 5 11 1 -3 -15 -20 -24 -30 -29 -18 -10 4 7 3 8 -5 4 -9
-6 -9 -11 0 -22 10 -12 9 -13 -6 -8 -13 5 -16 4 -11 -4 4 -7 1 -12 -8 -12 -10
0 -13 -6 -9 -17 4 -10 2 -14 -4 -10 -5 3 -10 0 -10 -8 0 -8 4 -15 9 -15 5 0 4
-9 -1 -19 -13 -23 11 -51 25 -30 5 8 13 4 26 -12 11 -13 17 -18 13 -12 -4 9
-1 11 9 7 9 -3 13 -11 9 -17 -4 -6 -1 -7 8 -1 8 4 24 9 37 10 21 1 23 -2 18
-35 -5 -33 -15 -137 -32 -346 -3 -44 -19 -150 -34 -235 -15 -85 -31 -198 -35
-250 -3 -52 -15 -169 -25 -260 -25 -222 -40 -399 -46 -577 -3 -81 -12 -228
-20 -325 -8 -97 -14 -183 -14 -190 -1 -35 -22 29 -25 75 -4 69 -15 126 -26
133 -5 3 -7 9 -4 14 3 5 0 12 -6 16 -8 5 -10 2 -5 -7 4 -8 0 -5 -8 5 -16 20
-16 20 -33 0 -10 -11 -19 -25 -20 -31 -1 -6 -5 -23 -8 -39 -6 -27 -6 -56 0
-114 1 -14 -4 -36 -12 -49 -8 -13 -10 -21 -5 -17 6 3 5 -6 -3 -21 -7 -16 -16
-44 -18 -63 -3 -19 -9 -56 -12 -83 -5 -30 -3 -52 4 -61 6 -7 19 -38 29 -69
l19 -55 -41 -6 c-23 -3 -317 -8 -653 -12 l-613 -7 0 79 c1 109 18 422 30 519
5 44 16 139 24 210 13 104 15 231 14 635 l-2 505 -6 -555 c-5 -438 -9 -578
-22 -665 -27 -177 -37 -297 -44 -517 l-7 -208 -103 0 c-56 0 -109 -2 -117 -5
-21 -9 -45 300 -27 355 12 35 11 42 -11 77 -24 38 -24 41 -23 288 1 252 8 353
37 500 18 90 57 337 56 351 -2 28 -25 -66 -60 -241 -48 -242 -46 -235 -69
-235 -24 0 -70 -55 -70 -85 0 -27 24 -55 48 -55 15 0 17 -22 17 -242 0 -215
-2 -245 -17 -260 -23 -23 -33 -81 -18 -107 6 -12 21 -26 33 -30 21 -8 24 -20
35 -127 7 -66 15 -136 18 -156 l7 -38 -64 0 c-35 0 -109 -7 -163 -15 -55 -8
-100 -15 -101 -15 -1 0 -5 15 -8 33 -3 17 -15 86 -27 152 -12 66 -25 188 -30
270 l-8 150 3 -155 c3 -137 17 -255 51 -417 7 -37 19 -32 -151 -58 -60 -10
-159 -26 -220 -36 -60 -10 -142 -22 -181 -25 l-71 -7 -10 29 c-18 49 -42 152
-69 304 -25 133 -27 173 -31 480 -5 359 1 476 43 790 28 208 37 295 59 595 9
116 22 282 31 370 9 96 18 387 24 730 7 370 15 619 25 710 8 77 22 226 30 330
8 105 20 244 26 310 10 115 62 466 113 760 13 77 27 176 31 220 16 193 108
624 190 890 71 228 96 330 135 535 16 91 39 206 50 257 11 50 20 101 20 112 0
17 107 241 115 241 2 0 -7 -26 -20 -59z m1910 -1893 c-7 -29 -20 -80 -29 -113
-34 -124 -39 -236 -32 -680 3 -236 9 -447 12 -468 l6 -39 -28 15 c-47 25 -98
81 -128 141 -47 94 -65 191 -77 421 -15 288 -7 500 25 638 13 60 27 112 31
115 4 4 46 10 93 13 48 3 99 6 113 7 l26 2 -12 -52z m-985 -182 c0 -8 -4 -17
-10 -21 -5 -3 -7 -12 -4 -20 13 -33 -69 -42 -476 -50 -140 -3 -268 -1 -285 3
-20 6 -31 16 -33 30 -4 28 2 29 123 36 55 2 107 7 116 11 29 11 212 22 392 24
148 1 177 -1 177 -13z m41 -20 c-6 -7 -7 -17 -3 -22 4 -4 -1 -2 -10 5 -13 10
-18 10 -18 2 0 -7 -5 -9 -11 -6 -13 9 -7 16 18 20 10 1 17 8 15 15 -1 6 2 9 8
5 8 -5 8 -11 1 -19z m174 14 c19 -7 19 -8 -6 -18 -38 -15 -114 -25 -138 -17
-13 4 -18 11 -14 22 6 14 7 14 14 -3 7 -17 8 -17 8 4 1 20 6 22 59 21 31 0 66
-4 77 -9z m862 -2745 c0 -8 -4 -12 -9 -9 -5 3 -6 10 -3 15 9 13 12 11 12 -6z
m3340 -2104 c102 -12 156 -41 209 -114 38 -51 44 -66 43 -106 -1 -35 -3 -40
-8 -21 -15 54 -21 -16 -22 -253 0 -193 -4 -262 -19 -342 l-19 -100 6 122 c3
67 2 197 -3 290 l-8 168 -7 -90 c-4 -49 -7 -141 -8 -204 -1 -109 -9 -204 -32
-373 -11 -87 -50 -206 -104 -323 -21 -44 -53 -113 -71 -154 -19 -41 -37 -72
-40 -69 -2 3 22 77 55 164 35 94 64 191 71 236 13 88 15 293 6 518 -9 217 -16
290 -27 265 -4 -11 -5 -159 -2 -330 7 -387 -2 -452 -101 -713 -95 -248 -145
-365 -165 -385 -20 -20 -17 -5 37 223 34 139 42 281 42 704 0 382 -5 446 -29
421 -5 -6 -11 -203 -14 -475 -4 -355 -9 -484 -21 -545 -27 -147 -76 -345 -91
-374 -23 -46 -64 -72 -104 -69 -35 3 -37 5 -57 68 -17 51 -23 104 -28 245 -4
99 -11 214 -16 255 -5 41 -9 127 -10 190 0 119 -22 343 -40 427 -15 66 -46
133 -77 166 -21 21 -36 27 -69 27 -39 0 -43 -3 -52 -32 -19 -61 -22 -85 -37
-288 -21 -264 -57 -411 -118 -477 -47 -52 -84 -12 -111 120 -66 331 -68 348
-63 663 5 269 7 297 24 316 55 61 445 212 613 237 136 20 348 26 467 12z
m-3404 -505 c7 -19 0 -25 -24 -19 -15 4 -17 8 -8 19 15 18 25 18 32 0z"/>
<path d="M11205 27884 c-22 -2 -96 -9 -165 -15 -229 -19 -481 -72 -675 -139
-110 -39 -361 -159 -395 -189 -30 -27 -35 -28 154 49 270 111 545 181 846 216
176 21 590 24 759 6 549 -60 1000 -227 1481 -548 152 -101 325 -245 375 -313
14 -19 25 -31 25 -27 0 29 -161 206 -273 299 -414 346 -951 570 -1537 642
-124 15 -500 27 -595 19z"/>
<path d="M6945 27580 c-159 -14 -310 -38 -452 -72 -73 -18 -131 -33 -129 -35
2 -2 64 7 137 21 267 49 351 57 609 57 505 1 747 -54 956 -216 35 -27 68 -45
83 -45 l26 1 -27 14 c-15 8 -51 38 -80 66 -100 96 -294 171 -513 198 -121 16
-486 22 -610 11z"/>
<path d="M7445 26405 c-38 -8 -83 -19 -100 -25 l-30 -10 35 6 c122 20 166 24
260 24 180 0 368 -38 421 -86 11 -9 22 -15 25 -11 20 19 -56 60 -164 88 -102
27 -347 34 -447 14z"/>
<path d="M10505 26240 c-74 -10 -223 -50 -277 -75 -18 -8 -24 -13 -13 -9 278
82 457 90 694 34 107 -26 117 -19 14 8 -167 45 -293 57 -418 42z"/>
<path d="M16348 24505 c-84 -31 -156 -96 -224 -202 -117 -183 -194 -340 -250
-513 -35 -104 -81 -221 -116 -289 -32 -63 -57 -116 -55 -118 3 -2 30 34 61 80
64 97 121 214 161 337 35 108 61 160 164 342 73 128 169 258 189 258 4 0 14
-18 23 -39 l17 -40 -28 -10 c-39 -13 -54 -45 -46 -98 6 -47 36 -112 60 -132 9
-8 16 -20 16 -27 0 -8 4 -14 8 -14 13 0 8 -136 -6 -152 -6 -8 -13 -23 -16 -34
-9 -41 -19 -64 -28 -64 -5 0 -6 -4 -3 -10 3 -5 2 -10 -3 -10 -10 0 -8 -48 3
-58 4 -4 6 0 5 8 -4 28 0 39 13 36 6 -1 9 -1 5 1 -5 3 -8 12 -8 21 0 15 2 15
11 2 8 -12 9 -11 7 5 -2 12 2 19 10 18 6 -2 11 0 11 5 -1 4 0 9 1 12 5 13 11
47 12 68 0 12 5 25 9 28 5 3 6 10 3 16 -4 7 -2 8 5 4 18 -11 6 -216 -18 -309
-28 -106 -90 -236 -130 -269 -33 -29 -87 -48 -134 -48 -15 0 -41 -7 -57 -15
-62 -32 -136 -166 -128 -230 5 -45 22 -32 48 41 45 121 81 155 178 168 59 9
112 37 150 81 18 20 32 33 32 30 0 -11 -68 -140 -133 -255 -37 -63 -64 -116
-62 -119 6 -5 2 -10 62 74 79 110 167 271 206 375 19 52 61 196 93 320 31 124
65 257 76 295 26 96 19 314 -12 375 -34 66 -99 85 -182 55z m126 -50 c28 -29
38 -95 34 -225 -4 -99 -10 -142 -31 -205 -14 -44 -33 -102 -41 -130 l-15 -50
3 100 c2 68 10 120 24 162 29 82 34 144 16 179 -19 36 -31 44 -70 44 -24 0
-36 9 -63 46 -18 25 -31 48 -29 50 2 2 24 12 48 23 54 25 103 27 124 6z m-153
-608 c-10 -9 -11 -8 -5 6 3 10 9 15 12 12 3 -3 0 -11 -7 -18z"/>
<path d="M6135 24031 c-3 -5 -2 -12 3 -15 5 -3 9 1 9 9 0 17 -3 19 -12 6z"/>
<path d="M8406 23465 c-20 -54 -41 -94 -72 -141 -28 -41 -35 -60 -36 -101 0
-50 14 -93 31 -93 5 0 6 29 4 64 -5 62 -4 66 36 128 41 63 57 110 48 145 -4
17 -4 17 -11 -2z"/>
<path d="M7446 22250 c14 -14 77 -24 359 -61 132 -17 273 -35 314 -40 40 -6
75 -8 78 -6 14 15 -188 50 -442 77 -101 10 -236 27 -290 36 -20 3 -26 1 -19
-6z"/>
<path d="M8770 21999 c19 -6 62 -17 95 -26 33 -8 70 -19 83 -24 13 -5 33 -9
45 -9 13 0 49 -7 81 -15 87 -23 206 -34 206 -20 0 8 -26 14 -67 18 -69 6 -139
20 -293 59 -90 23 -221 38 -150 17z"/>
<path d="M14935 21930 c-2 -3 0 -11 4 -18 5 -8 10 -6 18 7 9 14 8 18 -3 18 -8
0 -17 -3 -19 -7z"/>
<path d="M14913 21875 c0 -8 4 -12 9 -9 5 3 6 10 3 15 -9 13 -12 11 -12 -6z"/>
<path d="M14889 21868 c-5 -18 -6 -38 -1 -34 7 8 12 36 6 36 -2 0 -4 -1 -5 -2z"/>
<path d="M8087 21609 c29 -29 364 -102 527 -114 l61 -5 -55 14 c-30 8 -136 29
-234 46 -99 18 -208 40 -244 50 -35 10 -60 14 -55 9z"/>
<path d="M5175 20776 c-290 -110 -575 -279 -785 -465 -78 -70 -29 -44 83 44
211 165 471 311 722 405 163 61 181 69 145 69 -14 0 -88 -23 -165 -53z"/>
<path d="M11077 14733 c3 -7 6 -13 8 -13 2 0 5 6 8 13 3 8 -1 14 -8 14 -7 0
-11 -6 -8 -14z"/>
<path d="M11006 14453 c-6 -14 -5 -15 5 -6 7 7 10 15 7 18 -3 3 -9 -2 -12 -12z"/>
<path d="M11090 14419 c13 -23 22 -25 13 -2 -5 12 -3 14 8 8 8 -5 11 -4 6 0
-4 5 -14 10 -22 11 -12 2 -12 -2 -5 -17z"/>
<path d="M8833 12875 c0 -44 2 -61 4 -37 2 23 2 59 0 80 -2 20 -4 1 -4 -43z"/>
<path d="M8823 12695 c0 -33 2 -45 4 -27 2 18 2 45 0 60 -2 15 -4 0 -4 -33z"/>
<path d="M8814 12520 c0 -58 1 -81 3 -52 2 28 2 76 0 105 -2 28 -3 5 -3 -53z"/>
</g>
</svg>
