<?xml version="1.0" standalone="no"?>
<!DOCTYPE svg PUBLIC "-//W3C//DTD SVG 20010904//EN"
 "http://www.w3.org/TR/2001/REC-SVG-20010904/DTD/svg10.dtd">
<svg version="1.0" xmlns="http://www.w3.org/2000/svg"
 width="900.000000pt" height="900.000000pt" viewBox="0 0 900.000000 900.000000"
 preserveAspectRatio="xMidYMid meet">

<g transform="translate(0.000000,900.000000) scale(0.100000,-0.100000)"
fill="#000000" stroke="none">
<path d="M4145 8803 c-378 -45 -791 -181 -1140 -375 -548 -304 -980 -775
-1219 -1329 -176 -406 -265 -815 -281 -1299 -5 -136 -3 -198 10 -280 9 -58 25
-163 35 -235 11 -71 24 -157 30 -190 5 -33 10 -61 10 -63 0 -1 13 4 30 13 68
35 164 8 251 -73 63 -57 151 -182 170 -239 6 -18 14 -33 17 -33 4 0 6 73 5
162 l-3 163 34 -70 c61 -129 186 -275 356 -417 236 -198 513 -339 770 -394
114 -24 311 -24 400 -1 209 56 360 192 439 397 31 80 67 242 71 323 0 4 83 7
185 7 l185 0 0 -36 c0 -66 41 -238 76 -319 84 -195 227 -320 424 -372 88 -23
287 -23 398 0 317 66 640 249 901 508 105 105 176 196 222 284 l39 76 0 -163
0 -163 38 76 c112 222 288 345 406 284 15 -8 29 -15 31 -15 1 0 5 24 9 53 7
50 21 147 67 441 14 95 19 160 15 205 -3 36 -6 104 -7 151 -2 129 -37 467 -65
630 -142 816 -493 1418 -1040 1786 -113 76 -319 178 -446 223 -129 45 -326 91
-420 98 -74 5 -86 9 -113 35 -68 67 -255 127 -454 147 -96 10 -367 13 -436 4z
m943 -1148 c75 -16 257 -79 332 -115 552 -267 910 -869 1075 -1805 18 -102 67
-572 65 -614 -1 -3 -7 9 -15 26 -34 79 -162 166 -320 218 -206 67 -518 90
-745 54 -313 -49 -618 -163 -813 -303 l-78 -56 -283 0 c-271 0 -284 1 -301 20
-29 32 -170 119 -259 160 -181 83 -429 156 -632 184 -243 34 -570 0 -772 -80
-137 -55 -220 -119 -262 -199 l-21 -40 6 165 c7 200 19 323 46 453 128 621
516 1117 1157 1476 369 208 879 378 1367 456 55 9 103 22 107 28 4 7 76 215
160 464 l153 451 3 -469 2 -469 28 -5z"/>
<path d="M1850 3305 c0 -8 9 -76 21 -152 11 -76 29 -194 39 -263 25 -172 60
-399 65 -430 2 -14 13 -88 25 -165 11 -77 29 -198 40 -270 11 -71 20 -136 20
-142 0 -10 84 -13 386 -13 239 0 384 4 382 9 -1 6 -42 50 -89 98 -352 362
-568 696 -645 999 -12 51 -24 120 -25 153 l-2 61 -34 0 c-47 0 -81 20 -136 79
-26 27 -47 44 -47 36z"/>
<path d="M6733 3271 c-45 -52 -95 -81 -140 -81 l-29 0 -11 -93 c-21 -178 -114
-400 -258 -617 -114 -172 -310 -404 -456 -540 -32 -31 -59 -59 -59 -63 0 -4
175 -7 389 -7 l390 0 10 53 c6 28 17 103 26 165 9 62 18 121 20 131 2 10 13
86 24 167 12 82 23 159 25 171 3 12 12 72 21 133 9 61 18 121 21 133 2 12 13
87 24 167 11 80 22 156 25 170 13 73 24 154 22 156 -2 2 -21 -19 -44 -45z"/>
<path d="M2820 1489 c0 -8 -7 -57 -15 -109 -8 -52 -25 -171 -39 -265 -14 -93
-37 -244 -51 -335 -14 -91 -34 -223 -45 -295 -11 -72 -24 -157 -30 -190 -5
-33 -10 -71 -10 -85 l0 -25 754 3 755 2 -54 160 c-118 346 -256 573 -483 792
-221 213 -464 337 -698 355 -68 5 -84 3 -84 -8z"/>
<path d="M5630 1480 c-388 -82 -757 -411 -977 -870 -34 -72 -153 -395 -153
-416 0 -2 340 -4 755 -4 632 0 755 2 755 14 0 7 -7 52 -15 99 -8 47 -21 132
-29 188 -8 57 -17 118 -20 135 -3 16 -14 88 -25 160 -47 313 -61 401 -67 439
-3 22 -14 92 -23 155 l-16 115 -50 2 c-28 1 -88 -7 -135 -17z"/>
</g>
</svg>
